<svg xmlns="http://www.w3.org/2000/svg" width="21.214" height="18.393" viewBox="0 0 21.214 18.393">
  <path id="Path_5" d="M471.35,209.108a1.75,1.75,0,0,0-1.241-.508h-17.66a1.734,1.734,0,0,0-1.749,1.749v12.018a1.734,1.734,0,0,0,1.749,1.749h5.981a2.264,2.264,0,0,1-.169.846c-.113.282-.226.508-.339.79a.91.91,0,0,0-.169.508.788.788,0,0,0,.733.733h5.642a.788.788,0,0,0,.733-.733,1.794,1.794,0,0,0-.169-.508c-.113-.282-.226-.508-.339-.79a2.264,2.264,0,0,1-.169-.846h5.981a1.758,1.758,0,0,0,1.749-1.749V210.349A2.1,2.1,0,0,0,471.35,209.108Zm-.9,10.438a.364.364,0,0,1-.339.339h-17.66a.364.364,0,0,1-.339-.339v-9.2a.364.364,0,0,1,.339-.339h17.66a.364.364,0,0,1,.339.339Z" transform="translate(-450.7 -208.6)"/>
</svg>
