<svg xmlns="http://www.w3.org/2000/svg" width="15.777" height="10" viewBox="0 0 15.777 10">
  <g id="keyboard" transform="translate(0 -89.6)">
    <g id="Group_44" data-name="Group 44" transform="translate(0 89.6)">
      <path id="Path_18" data-name="Path 18" d="M14.881,89.6H.9a.9.9,0,0,0-.9.9V98.7a.9.9,0,0,0,.9.9H14.881a.9.9,0,0,0,.9-.9V90.5A.9.9,0,0,0,14.881,89.6ZM9.861,91.483a.223.223,0,0,1,.222-.222H11a.223.223,0,0,1,.222.222v.9A.223.223,0,0,1,11,92.6h-.912a.223.223,0,0,1-.222-.222ZM8.752,93.917h.912a.223.223,0,0,1,.222.222v.9a.223.223,0,0,1-.222.222H8.752a.223.223,0,0,1-.222-.222v-.9A.223.223,0,0,1,8.752,93.917ZM7.211,91.483a.223.223,0,0,1,.222-.222h.912a.223.223,0,0,1,.222.222v.9a.223.223,0,0,1-.222.222H7.434a.223.223,0,0,1-.222-.222v-.9ZM6.1,93.917h.912a.223.223,0,0,1,.222.222v.9a.223.223,0,0,1-.222.222H6.1a.223.223,0,0,1-.222-.222v-.9A.223.223,0,0,1,6.1,93.917ZM4.558,91.483a.223.223,0,0,1,.222-.222h.912a.223.223,0,0,1,.222.222v.9a.223.223,0,0,1-.222.222H4.781a.223.223,0,0,1-.222-.222Zm-2.666,0a.223.223,0,0,1,.222-.222h.912a.223.223,0,0,1,.222.222v.9a.223.223,0,0,1-.222.222H2.115a.223.223,0,0,1-.222-.222v-.9ZM3.25,97.717a.223.223,0,0,1-.222.222H2.115a.223.223,0,0,1-.222-.222v-.9a.223.223,0,0,1,.222-.222h.912a.223.223,0,0,1,.222.222v.9Zm1.1-2.46H3.433a.223.223,0,0,1-.222-.222v-.9a.223.223,0,0,1,.222-.222h.912a.223.223,0,0,1,.222.222v.9A.223.223,0,0,1,4.346,95.258Zm6.873,2.46A.223.223,0,0,1,11,97.94H4.784a.223.223,0,0,1-.222-.222v-.9a.223.223,0,0,1,.222-.222H11a.223.223,0,0,1,.222.222Zm1.1-2.46H11.4a.223.223,0,0,1-.222-.222v-.9a.223.223,0,0,1,.222-.222h.912a.223.223,0,0,1,.222.222v.9A.223.223,0,0,1,12.315,95.258Zm1.57,2.46a.223.223,0,0,1-.222.222H12.75a.223.223,0,0,1-.222-.222v-.9a.223.223,0,0,1,.222-.222h.912a.223.223,0,0,1,.222.222Zm0-5.338a.223.223,0,0,1-.222.222H12.75a.223.223,0,0,1-.222-.222v-.9a.223.223,0,0,1,.222-.222h.912a.223.223,0,0,1,.222.222Z" transform="translate(0 -89.6)" fill="#999"/>
    </g>
  </g>
</svg>
