<svg xmlns="http://www.w3.org/2000/svg" width="16.266" height="18.279" viewBox="0 0 16.266 18.279">
  <g id="Group_5" data-name="Group 5" transform="translate(2.000 -0.001)">
    <path id="Path_10" d="M317.485,220.492h0a3.4,3.4,0,0,0,3.385-3.385v-5.021a3.4,3.4,0,0,0-3.385-3.385h0a3.4,3.4,0,0,0-3.385,3.385v5.021a3.4,3.4,0,0,0,3.385,3.385Z" transform="translate(-311.223 -208.7)"/>
    <path id="Path_11" d="M309,220.736v.846a6.279,6.279,0,0,0,5.021,6.15v1.918a1.93,1.93,0,0,0-1.411,1.862h5.247a1.93,1.93,0,0,0-1.411-1.862v-1.918a6.233,6.233,0,0,0,5.022-6.15v-.846a1.637,1.637,0,0,0-1.636-1.636h0v2.483a4.627,4.627,0,1,1-9.254,0h0V219.1a1.665,1.665,0,0,0-1.58,1.636Z" transform="translate(-309 -213.232)"/>
  </g>
</svg>
