<svg xmlns="http://www.w3.org/2000/svg" width="16.266" height="18.279" viewBox="0 0 16.266 18.279">
  <g id="mute" transform="translate(-148.223 -121.009)">
    <path id="Path_14" data-name="Path 14" d="M317.318,123.234a3.311,3.311,0,0,0-6.44,1.087v4.913a3.3,3.3,0,0,0,.027.413Z" transform="translate(-157.702)"/>
    <path id="Path_15" data-name="Path 15" d="M220.208,313.509a4.466,4.466,0,0,1-.261-1.5v-2.43a1.63,1.63,0,0,0-1.546,1.6v.829a6.115,6.115,0,0,0,.62,2.69Z" transform="translate(-68.042 -182.825)"/>
    <path id="Path_16" data-name="Path 16" d="M160.96,128.877v2.43a4.547,4.547,0,0,1-4.527,4.527,4.489,4.489,0,0,1-2.646-.865l.859-.859a3.286,3.286,0,0,0,1.843.565,3.322,3.322,0,0,0,3.313-3.313v-2.407l4.689-4.689-1.063-1.063-15.2,15.2,1.063,1.063,3.376-3.376a6.236,6.236,0,0,0,2.612,1.231V139.2a1.889,1.889,0,0,0-1.38,1.822h5.135a1.889,1.889,0,0,0-1.381-1.822v-1.877a6.1,6.1,0,0,0,4.913-6.018v-.829A1.6,1.6,0,0,0,160.96,128.877Z" transform="translate(0 -2.126)"/>
  </g>
</svg>
