<svg xmlns="http://www.w3.org/2000/svg" width="21.158" height="18.393" viewBox="0 0 21.158 18.393">
  <g id="Group_19" data-name="Group 19" transform="translate(0 0)">
    <path id="Path_8" d="M623.568,212.224a2.647,2.647,0,0,0-1.975-.846h-2.483l-.564-1.523a1.878,1.878,0,0,0-.79-.959,2.1,2.1,0,0,0-1.128-.395h-5.642a2.1,2.1,0,0,0-1.128.395,2.2,2.2,0,0,0-.79.959l-.564,1.523h-2.483A2.893,2.893,0,0,0,603.2,214.2v9.874a2.893,2.893,0,0,0,2.821,2.821h15.516a2.794,2.794,0,0,0,2.821-2.821V214.2A2.819,2.819,0,0,0,623.568,212.224Zm-6.319,10.382a4.9,4.9,0,0,1-7,0,4.9,4.9,0,0,1,0-6.94h0a4.927,4.927,0,0,1,7,6.94Z" transform="translate(-603.2 -208.5)"/>
    <path id="Path_9" d="M619.516,221.7a3.188,3.188,0,1,0-.056,6.376,3.2,3.2,0,0,0,3.216-3.16,3.163,3.163,0,0,0-.959-2.257A2.945,2.945,0,0,0,619.516,221.7Z" transform="translate(-608.909 -214.252)"/>
  </g>
</svg>
